<svg width="172" height="31" viewBox="0 0 172 31" fill="none" xmlns="http://www.w3.org/2000/svg">
<path d="M45.6665 20.3459V27.7218H42.0994V9.76318H45.6665V17.0321H47.3265L53.2246 9.76318H57.6747L50.2226 18.5287L58.2398 27.7218H53.6131L47.2912 20.3459H45.6665Z" fill="#FF3D3A"/>
<path fill-rule="evenodd" clip-rule="evenodd" d="M66.9281 26.3679V27.7219H70.1774V15.2863H66.9281V16.6759C66.1158 15.6426 64.9503 14.9656 63.255 14.9656C59.8292 14.9656 57.2863 17.7805 57.2863 21.5219C57.2863 25.2633 59.8292 28.0782 63.255 28.0782C64.915 28.0782 66.1158 27.3656 66.9281 26.3679ZM63.8555 24.907C61.9129 24.907 60.6768 23.3748 60.6768 21.4863C60.6768 19.5978 61.9129 18.0656 63.8555 18.0656C65.7626 18.0656 67.0341 19.5265 67.0341 21.4863C67.0341 23.446 65.7626 24.907 63.8555 24.907Z" fill="#FF3D3A"/>
<path d="M76.0049 27.7219L71.131 15.2863H74.7334L77.9121 24.1943L81.1261 15.2863H84.6226L79.8193 27.7219H76.0049Z" fill="#FF3D3A"/>
<path fill-rule="evenodd" clip-rule="evenodd" d="M96.6308 22.6265C96.6661 22.3058 96.7014 21.8782 96.7014 21.4863C96.7014 17.6024 94.2645 14.9656 90.6973 14.9656C87.0242 14.9656 84.4813 17.638 84.4813 21.5575C84.4813 25.4771 87.0949 28.0782 90.8739 28.0782C92.9577 28.0782 94.7236 27.4725 96.1364 26.1897L94.1938 24.0162C93.3109 24.7644 92.1454 25.192 91.0858 25.192C89.4965 25.192 88.2251 24.4081 87.9072 22.6265H96.6308ZM93.3462 20.346H87.9072C88.1897 18.7782 89.108 17.8518 90.662 17.8518C92.1101 17.8518 93.0283 18.7426 93.3462 20.346Z" fill="#FF3D3A"/>
<path d="M118.281 17.0678V9.90576H121.777V27.6506H118.281V20.346H109.804V27.6506H106.308V9.90576H109.804V17.0678H118.281Z" fill="#FF3D3A"/>
<path fill-rule="evenodd" clip-rule="evenodd" d="M130.289 27.9356C134.104 27.9356 136.894 25.1919 136.894 21.4862C136.894 17.8161 134.104 15.0367 130.289 15.0367C126.51 15.0367 123.72 17.7804 123.72 21.4862C123.72 25.1919 126.51 27.9356 130.289 27.9356ZM130.289 24.8712C128.453 24.8712 127.075 23.4816 127.075 21.4862C127.075 19.5264 128.453 18.1011 130.289 18.1011C132.161 18.1011 133.538 19.4908 133.538 21.4862C133.538 23.4816 132.161 24.8712 130.289 24.8712Z" fill="#FF3D3A"/>
<path d="M158.261 19.8114V27.6149H155.012V20.8448C155.012 19.0632 154.129 18.1011 152.646 18.1011C151.233 18.1011 150.067 19.0275 150.067 20.8804V27.6149H146.783V20.8448C146.783 19.0632 145.9 18.1011 144.416 18.1011C143.004 18.1011 141.838 19.0275 141.838 20.8804V27.6149H138.554V15.3218H141.732V16.7827C142.615 15.4643 143.922 15.0011 145.299 15.0011C147.065 15.0011 148.513 15.785 149.326 17.1034C150.279 15.5356 151.869 15.0011 153.458 15.0011C156.354 15.0367 158.261 16.9609 158.261 19.8114Z" fill="#FF3D3A"/>
<path fill-rule="evenodd" clip-rule="evenodd" d="M171.859 22.5908C171.894 22.3057 171.929 21.8781 171.929 21.4862C171.929 17.6735 169.528 15.0367 165.996 15.0367C162.358 15.0367 159.85 17.6735 159.85 21.5218C159.85 25.3701 162.464 27.9356 166.172 27.9356C168.256 27.9356 169.987 27.3655 171.364 26.0827L169.457 23.9448C168.574 24.6931 167.444 25.1207 166.384 25.1207C164.83 25.1207 163.559 24.3724 163.241 22.5908H171.859ZM168.645 20.3459H163.241C163.524 18.8138 164.442 17.8873 165.996 17.8873C167.409 17.8873 168.327 18.7781 168.645 20.3459Z" fill="#FF3D3A"/>
<path fill-rule="evenodd" clip-rule="evenodd" d="M16.1758 0.24939C20.4493 0.24939 24.5109 1.9241 27.5483 4.98847C30.5857 8.05284 32.2456 12.1149 32.2809 16.462V30.7505H0.0706787V16.462C0.0706787 12.1149 1.76596 8.05284 4.80333 4.98847C7.8407 1.9241 11.867 0.24939 16.1758 0.24939ZM29.1376 16.462V18.2436L3.14337 25.477V16.4264C3.14337 9.19307 8.97088 3.34939 16.1405 3.34939C23.3101 3.34939 29.1376 9.2287 29.1376 16.462ZM29.1376 21.4862V27.5793H7.24029L29.1376 21.4862Z" fill="#FF3D3A"/>
</svg>
